<?xml version="1.0" encoding="UTF-8" standalone="no"?>
<!DOCTYPE svg PUBLIC "-//W3C//DTD SVG 1.1//EN"
 "http://www.w3.org/Graphics/SVG/1.1/DTD/svg11.dtd">
<!-- Generated by graphviz version 15.0.0 (20260523.1842)
 -->
<!-- Title: G Pages: 1 -->
<svg width="597pt" height="657pt"
 viewBox="0.00 0.00 597.00 657.00" xmlns="http://www.w3.org/2000/svg" xmlns:xlink="http://www.w3.org/1999/xlink">
<g id="graph0" class="graph" transform="scale(1 1) rotate(0) translate(4 653)">
<title>G</title><style>.edge>path:hover{stroke-width:8}</style>
<polygon fill="white" stroke="none" points="-4,4 -4,-653 592.73,-653 592.73,4 -4,4"/>
<!-- app_py -->
<g id="node1" class="node">
<title>app_py</title><style>.edge>path:hover{stroke-width:8}</style>
<ellipse fill="#995252" stroke="black" cx="282.53" cy="-18" rx="27" ry="18"/>
<text xml:space="preserve" text-anchor="middle" x="282.53" y="-14.12" font-family="Helvetica,sans-Serif" font-size="10.00" fill="#ffffff">app.py</text>
</g>
<!-- db -->
<g id="node2" class="node">
<title>db</title><style>.edge>path:hover{stroke-width:8}</style>
<ellipse fill="#a6c040" stroke="black" cx="179.53" cy="-199" rx="27" ry="18"/>
<text xml:space="preserve" text-anchor="middle" x="179.53" y="-195.12" font-family="Helvetica,sans-Serif" font-size="10.00" fill="#000000">db</text>
</g>
<!-- db&#45;&gt;app_py -->
<g id="edge1" class="edge">
<title>db&#45;&gt;app_py</title><style>.edge>path:hover{stroke-width:8}</style>
<path fill="none" stroke="black" d="M198.2,-185.74C225.97,-165.96 275.64,-124 282.53,-73"/>
</g>
<!-- query_data -->
<g id="node16" class="node">
<title>query_data</title><style>.edge>path:hover{stroke-width:8}</style>
<ellipse fill="#9246a4" stroke="black" cx="179.53" cy="-127" rx="37.87" ry="18"/>
<text xml:space="preserve" text-anchor="middle" x="179.53" y="-123.12" font-family="Helvetica,sans-Serif" font-size="10.00" fill="#ffffff">query_data</text>
</g>
<!-- db&#45;&gt;query_data -->
<g id="edge2" class="edge">
<title>db&#45;&gt;query_data</title><style>.edge>path:hover{stroke-width:8}</style>
<path fill="none" stroke="black" d="M179.53,-180.7C179.53,-173.41 179.53,-164.73 179.53,-156.54"/>
<polygon fill="#a6c040" stroke="black" points="183.03,-156.62 179.53,-146.62 176.03,-156.62 183.03,-156.62"/>
</g>
<!-- flask -->
<g id="node3" class="node">
<title>flask</title><style>.edge>path:hover{stroke-width:8}</style>
<polygon fill="blue" stroke="black" points="367.53,-145 313.53,-145 313.53,-109 367.53,-109 367.53,-145"/>
<text xml:space="preserve" text-anchor="middle" x="340.53" y="-123.12" font-family="Helvetica,sans-Serif" font-size="10.00" fill="white">flask</text>
</g>
<!-- flask&#45;&gt;app_py -->
<g id="edge3" class="edge">
<title>flask&#45;&gt;app_py</title><style>.edge>path:hover{stroke-width:8}</style>
<path fill="none" stroke="black" d="M313.32,-114.49C297.06,-105.6 280.01,-91.65 282.53,-73"/>
</g>
<!-- flask_app -->
<g id="node4" class="node">
<title>flask_app</title><style>.edge>path:hover{stroke-width:8}</style>
<polygon fill="blue" stroke="black" points="434.41,-577 378.66,-577 378.66,-541 434.41,-541 434.41,-577"/>
<text xml:space="preserve" text-anchor="middle" x="406.53" y="-555.12" font-family="Helvetica,sans-Serif" font-size="10.00" fill="white">flask.app</text>
</g>
<!-- flask_app&#45;&gt;flask -->
<g id="edge4" class="edge">
<title>flask_app&#45;&gt;flask</title><style>.edge>path:hover{stroke-width:8}</style>
<path fill="none" stroke="black" d="M583.53,-270C588.73,-229.89 592.82,-209.91 564.53,-181 539.04,-154.94 436.13,-139.11 379.08,-132.16"/>
<polygon fill="blue" stroke="black" points="379.83,-128.72 369.49,-131.03 379.01,-135.68 379.83,-128.72"/>
<path fill="none" stroke="black" d="M434.56,-546.73C453.47,-537.87 477.77,-523.86 493.53,-505 511.33,-483.7 581.56,-299.68 583.53,-272"/>
</g>
<!-- flask_ctx -->
<g id="node7" class="node">
<title>flask_ctx</title><style>.edge>path:hover{stroke-width:8}</style>
<polygon fill="blue" stroke="black" points="277.53,-505 223.53,-505 223.53,-469 277.53,-469 277.53,-505"/>
<text xml:space="preserve" text-anchor="middle" x="250.53" y="-483.12" font-family="Helvetica,sans-Serif" font-size="10.00" fill="white">flask.ctx</text>
</g>
<!-- flask_app&#45;&gt;flask_ctx -->
<g id="edge5" class="edge">
<title>flask_app&#45;&gt;flask_ctx</title><style>.edge>path:hover{stroke-width:8}</style>
<path fill="none" stroke="black" d="M368.04,-540.73C343.64,-529.78 312.22,-515.68 288.01,-504.82"/>
<polygon fill="blue" stroke="black" points="366.34,-543.8 376.9,-544.7 369.21,-537.42 366.34,-543.8"/>
<polygon fill="blue" stroke="black" points="289.72,-501.75 279.17,-500.85 286.86,-508.14 289.72,-501.75"/>
</g>
<!-- flask_globals -->
<g id="node8" class="node">
<title>flask_globals</title><style>.edge>path:hover{stroke-width:8}</style>
<polygon fill="blue" stroke="black" points="403.91,-433 333.16,-433 333.16,-397 403.91,-397 403.91,-433"/>
<text xml:space="preserve" text-anchor="middle" x="368.53" y="-411.12" font-family="Helvetica,sans-Serif" font-size="10.00" fill="white">flask.globals</text>
</g>
<!-- flask_app&#45;&gt;flask_globals -->
<g id="edge6" class="edge">
<title>flask_app&#45;&gt;flask_globals</title><style>.edge>path:hover{stroke-width:8}</style>
<path fill="none" stroke="black" d="M398.93,-529.6C392.27,-504.7 382.64,-468.71 376.01,-443.94"/>
<polygon fill="blue" stroke="black" points="395.51,-530.37 401.48,-539.13 402.28,-528.56 395.51,-530.37"/>
<polygon fill="blue" stroke="black" points="379.47,-443.33 373.5,-434.57 372.71,-445.14 379.47,-443.33"/>
</g>
<!-- flask_templating -->
<g id="node12" class="node">
<title>flask_templating</title><style>.edge>path:hover{stroke-width:8}</style>
<polygon fill="blue" stroke="black" points="555.03,-217 494.03,-217 494.03,-181 555.03,-181 555.03,-217"/>
<text xml:space="preserve" text-anchor="middle" x="524.53" y="-200.75" font-family="Helvetica,sans-Serif" font-size="10.00" fill="white">flask.</text>
<text xml:space="preserve" text-anchor="middle" x="524.53" y="-189.5" font-family="Helvetica,sans-Serif" font-size="10.00" fill="white">templating</text>
</g>
<!-- flask_app&#45;&gt;flask_templating -->
<g id="edge7" class="edge">
<title>flask_app&#45;&gt;flask_templating</title><style>.edge>path:hover{stroke-width:8}</style>
<path fill="none" stroke="black" d="M438.38,-533.58C467.99,-507.87 507.53,-464.46 507.53,-416 507.53,-416 507.53,-416 507.53,-342 507.53,-302.46 514.11,-257.16 519.08,-228.57"/>
<polygon fill="blue" stroke="black" points="436.52,-530.58 431.12,-539.69 441.02,-535.94 436.52,-530.58"/>
<polygon fill="blue" stroke="black" points="522.5,-229.36 520.82,-218.9 515.61,-228.12 522.5,-229.36"/>
</g>
<!-- flask_blueprints -->
<g id="node5" class="node">
<title>flask_blueprints</title><style>.edge>path:hover{stroke-width:8}</style>
<polygon fill="blue" stroke="black" points="341.53,-217 283.53,-217 283.53,-181 341.53,-181 341.53,-217"/>
<text xml:space="preserve" text-anchor="middle" x="312.53" y="-200.75" font-family="Helvetica,sans-Serif" font-size="10.00" fill="white">flask.</text>
<text xml:space="preserve" text-anchor="middle" x="312.53" y="-189.5" font-family="Helvetica,sans-Serif" font-size="10.00" fill="white">blueprints</text>
</g>
<!-- flask_blueprints&#45;&gt;flask -->
<g id="edge8" class="edge">
<title>flask_blueprints&#45;&gt;flask</title><style>.edge>path:hover{stroke-width:8}</style>
<path fill="none" stroke="black" d="M319.45,-180.7C322.47,-173.15 326.08,-164.12 329.46,-155.68"/>
<polygon fill="blue" stroke="black" points="332.66,-157.09 333.13,-146.51 326.16,-154.49 332.66,-157.09"/>
</g>
<!-- flask_config -->
<g id="node6" class="node">
<title>flask_config</title><style>.edge>path:hover{stroke-width:8}</style>
<ellipse fill="#53b67b" stroke="black" cx="436.53" cy="-199" rx="39.2" ry="18"/>
<text xml:space="preserve" text-anchor="middle" x="436.53" y="-195.12" font-family="Helvetica,sans-Serif" font-size="10.00" fill="#000000">flask.config</text>
</g>
<!-- flask_config&#45;&gt;flask -->
<g id="edge9" class="edge">
<title>flask_config&#45;&gt;flask</title><style>.edge>path:hover{stroke-width:8}</style>
<path fill="none" stroke="black" d="M416.17,-183.15C403.71,-174.07 387.48,-162.23 373.25,-151.86"/>
<polygon fill="#53b67b" stroke="black" points="375.61,-149.25 365.47,-146.18 371.49,-154.9 375.61,-149.25"/>
</g>
<!-- flask_ctx&#45;&gt;flask -->
<g id="edge10" class="edge">
<title>flask_ctx&#45;&gt;flask</title><style>.edge>path:hover{stroke-width:8}</style>
<path fill="none" stroke="black" d="M243.68,-468.69C229.24,-429.93 198.21,-333.26 213.53,-253 218.28,-228.11 226.75,-224.11 234.53,-200"/>
<path fill="none" stroke="black" d="M234.53,-198C243.3,-167.44 275.8,-149.11 302.52,-138.91"/>
<polygon fill="blue" stroke="black" points="303.47,-142.29 311.74,-135.66 301.14,-135.69 303.47,-142.29"/>
</g>
<!-- flask_ctx&#45;&gt;flask_globals -->
<g id="edge12" class="edge">
<title>flask_ctx&#45;&gt;flask_globals</title><style>.edge>path:hover{stroke-width:8}</style>
<path fill="none" stroke="black" d="M287.37,-464.15C300.81,-456.17 316.05,-447.13 329.67,-439.05"/>
<polygon fill="blue" stroke="black" points="286.02,-460.88 279.2,-468.99 289.59,-466.9 286.02,-460.88"/>
<polygon fill="blue" stroke="black" points="331.13,-442.26 337.95,-434.14 327.56,-436.23 331.13,-442.26"/>
</g>
<!-- flask_globals&#45;&gt;flask -->
<g id="edge13" class="edge">
<title>flask_globals&#45;&gt;flask</title><style>.edge>path:hover{stroke-width:8}</style>
<path fill="none" stroke="black" d="M341.53,-270C334.74,-260.93 331.65,-259.73 322.53,-253 285.8,-225.88 220.5,-243.45 234.53,-200"/>
<path fill="none" stroke="black" d="M383.53,-342C385.01,-305.75 363.27,-301.05 341.53,-272"/>
</g>
<!-- flask_globals&#45;&gt;flask_blueprints -->
<g id="edge15" class="edge">
<title>flask_globals&#45;&gt;flask_blueprints</title><style>.edge>path:hover{stroke-width:8}</style>
<path fill="none" stroke="black" d="M341.53,-270C332.17,-257.49 325.26,-241.53 320.53,-228"/>
<polygon fill="blue" stroke="black" points="323.95,-227.22 317.54,-218.79 317.3,-229.38 323.95,-227.22"/>
</g>
<!-- flask_helpers -->
<g id="node9" class="node">
<title>flask_helpers</title><style>.edge>path:hover{stroke-width:8}</style>
<polygon fill="blue" stroke="black" points="441.28,-289 369.78,-289 369.78,-253 441.28,-253 441.28,-289"/>
<text xml:space="preserve" text-anchor="middle" x="405.53" y="-267.12" font-family="Helvetica,sans-Serif" font-size="10.00" fill="white">flask.helpers</text>
</g>
<!-- flask_globals&#45;&gt;flask_helpers -->
<g id="edge17" class="edge">
<title>flask_globals&#45;&gt;flask_helpers</title><style>.edge>path:hover{stroke-width:8}</style>
<path fill="none" stroke="black" d="M383.53,-342C384.18,-327.78 388.46,-312.63 393.07,-300.07"/>
<polygon fill="blue" stroke="black" points="396.32,-301.37 396.75,-290.78 389.81,-298.79 396.32,-301.37"/>
</g>
<!-- flask_json -->
<g id="node10" class="node">
<title>flask_json</title><style>.edge>path:hover{stroke-width:8}</style>
<polygon fill="blue" stroke="black" points="313.53,-289 255.53,-289 255.53,-253 313.53,-253 313.53,-289"/>
<text xml:space="preserve" text-anchor="middle" x="284.53" y="-267.12" font-family="Helvetica,sans-Serif" font-size="10.00" fill="white">flask.json</text>
</g>
<!-- flask_globals&#45;&gt;flask_json -->
<g id="edge18" class="edge">
<title>flask_globals&#45;&gt;flask_json</title><style>.edge>path:hover{stroke-width:8}</style>
<path fill="none" stroke="black" d="M383.53,-342C384.23,-326.64 351.91,-306.02 324.01,-291.14"/>
<polygon fill="blue" stroke="black" points="325.83,-288.15 315.35,-286.64 322.61,-294.36 325.83,-288.15"/>
<path fill="none" stroke="black" d="M373.92,-396.66C377.88,-382.62 382.7,-362.25 383.53,-344"/>
</g>
<!-- flask_globals&#45;&gt;flask_templating -->
<g id="edge19" class="edge">
<title>flask_globals&#45;&gt;flask_templating</title><style>.edge>path:hover{stroke-width:8}</style>
<path fill="none" stroke="black" d="M383.53,-342C385.26,-304.07 423.36,-315.52 450.53,-289 470.62,-269.4 490.81,-244.7 505.02,-226.29"/>
<polygon fill="blue" stroke="black" points="507.67,-228.58 510.95,-218.51 502.1,-224.34 507.67,-228.58"/>
</g>
<!-- flask_wrappers -->
<g id="node13" class="node">
<title>flask_wrappers</title><style>.edge>path:hover{stroke-width:8}</style>
<polygon fill="blue" stroke="black" points="345.41,-361 265.66,-361 265.66,-325 345.41,-325 345.41,-361"/>
<text xml:space="preserve" text-anchor="middle" x="305.53" y="-339.12" font-family="Helvetica,sans-Serif" font-size="10.00" fill="white">flask.wrappers</text>
</g>
<!-- flask_globals&#45;&gt;flask_wrappers -->
<g id="edge20" class="edge">
<title>flask_globals&#45;&gt;flask_wrappers</title><style>.edge>path:hover{stroke-width:8}</style>
<path fill="none" stroke="black" d="M345.45,-388.36C339.97,-382.26 334.11,-375.75 328.62,-369.65"/>
<polygon fill="blue" stroke="black" points="342.65,-390.48 351.95,-395.57 347.86,-385.8 342.65,-390.48"/>
<polygon fill="blue" stroke="black" points="331.23,-367.32 321.94,-362.23 326.03,-372 331.23,-367.32"/>
</g>
<!-- flask_helpers&#45;&gt;flask -->
<g id="edge21" class="edge">
<title>flask_helpers&#45;&gt;flask</title><style>.edge>path:hover{stroke-width:8}</style>
<path fill="none" stroke="black" d="M397.56,-252.59C386.44,-228.29 366.15,-183.97 353.02,-155.27"/>
<polygon fill="blue" stroke="black" points="356.34,-154.12 348.99,-146.49 349.97,-157.04 356.34,-154.12"/>
</g>
<!-- flask_helpers&#45;&gt;flask_app -->
<g id="edge22" class="edge">
<title>flask_helpers&#45;&gt;flask_app</title><style>.edge>path:hover{stroke-width:8}</style>
<path fill="none" stroke="black" d="M406.81,-289.38C408.52,-313.51 411.46,-358.54 412.53,-397 413.83,-443.36 410.93,-497.21 408.72,-529.4"/>
<polygon fill="blue" stroke="black" points="405.25,-528.88 408.03,-539.1 412.23,-529.38 405.25,-528.88"/>
</g>
<!-- flask_helpers&#45;&gt;flask_blueprints -->
<g id="edge23" class="edge">
<title>flask_helpers&#45;&gt;flask_blueprints</title><style>.edge>path:hover{stroke-width:8}</style>
<path fill="none" stroke="black" d="M382.54,-252.7C371.14,-244.11 357.18,-233.61 344.73,-224.24"/>
<polygon fill="blue" stroke="black" points="346.88,-221.47 336.79,-218.26 342.67,-227.07 346.88,-221.47"/>
</g>
<!-- flask_helpers&#45;&gt;flask_templating -->
<g id="edge24" class="edge">
<title>flask_helpers&#45;&gt;flask_templating</title><style>.edge>path:hover{stroke-width:8}</style>
<path fill="none" stroke="black" d="M435.25,-252.52C450.42,-243.6 469.06,-232.63 485.38,-223.03"/>
<polygon fill="blue" stroke="black" points="487.04,-226.11 493.88,-218.03 483.49,-220.08 487.04,-226.11"/>
</g>
<!-- flask_json&#45;&gt;flask -->
<g id="edge26" class="edge">
<title>flask_json&#45;&gt;flask</title><style>.edge>path:hover{stroke-width:8}</style>
<path fill="none" stroke="black" d="M259.74,-252.73C244.11,-239.51 228.02,-220.18 234.53,-200"/>
</g>
<!-- flask_signals -->
<g id="node11" class="node">
<title>flask_signals</title><style>.edge>path:hover{stroke-width:8}</style>
<ellipse fill="#22e771" stroke="black" cx="406.53" cy="-631" rx="41.86" ry="18"/>
<text xml:space="preserve" text-anchor="middle" x="406.53" y="-627.12" font-family="Helvetica,sans-Serif" font-size="10.00" fill="#000000">flask.signals</text>
</g>
<!-- flask_signals&#45;&gt;flask -->
<g id="edge28" class="edge">
<title>flask_signals&#45;&gt;flask</title><style>.edge>path:hover{stroke-width:8}</style>
<path fill="none" stroke="black" d="M583.53,-342C580.83,-311.01 583.02,-303.11 583.53,-272"/>
</g>
<!-- flask_signals&#45;&gt;flask_app -->
<g id="edge29" class="edge">
<title>flask_signals&#45;&gt;flask_app</title><style>.edge>path:hover{stroke-width:8}</style>
<path fill="none" stroke="black" d="M406.53,-612.7C406.53,-605.41 406.53,-596.73 406.53,-588.54"/>
<polygon fill="#22e771" stroke="black" points="410.03,-588.62 406.53,-578.62 403.03,-588.62 410.03,-588.62"/>
</g>
<!-- flask_signals&#45;&gt;flask_ctx -->
<g id="edge30" class="edge">
<title>flask_signals&#45;&gt;flask_ctx</title><style>.edge>path:hover{stroke-width:8}</style>
<path fill="none" stroke="black" d="M389.24,-614.26C362.27,-589.71 309.94,-542.08 277.83,-512.85"/>
<polygon fill="#22e771" stroke="black" points="280.22,-510.29 270.47,-506.15 275.51,-515.47 280.22,-510.29"/>
</g>
<!-- flask_signals&#45;&gt;flask_helpers -->
<g id="edge31" class="edge">
<title>flask_signals&#45;&gt;flask_helpers</title><style>.edge>path:hover{stroke-width:8}</style>
<path fill="none" stroke="black" d="M432.78,-616.83C489.36,-586.46 615.22,-507.07 583.53,-416"/>
<path fill="none" stroke="black" d="M583.53,-414C564.55,-352.69 498.05,-312.03 451.94,-290.49"/>
<polygon fill="#22e771" stroke="black" points="453.5,-287.36 442.95,-286.43 450.62,-293.73 453.5,-287.36"/>
</g>
<!-- flask_signals&#45;&gt;flask_templating -->
<g id="edge32" class="edge">
<title>flask_signals&#45;&gt;flask_templating</title><style>.edge>path:hover{stroke-width:8}</style>
<path fill="none" stroke="black" d="M583.53,-414C579.19,-383.19 587.53,-374.85 583.53,-344"/>
<path fill="none" stroke="black" d="M583.53,-342C580.56,-319.07 554.59,-262.14 538.11,-227.73"/>
<polygon fill="#22e771" stroke="black" points="541.29,-226.27 533.79,-218.79 534.98,-229.31 541.29,-226.27"/>
</g>
<!-- flask_templating&#45;&gt;flask -->
<g id="edge33" class="edge">
<title>flask_templating&#45;&gt;flask</title><style>.edge>path:hover{stroke-width:8}</style>
<path fill="none" stroke="black" d="M493.58,-184.67C490.53,-183.41 487.48,-182.17 484.53,-181 448.85,-166.86 407.71,-151.85 378.57,-141.42"/>
<polygon fill="blue" stroke="black" points="380.04,-138.23 369.45,-138.17 377.69,-144.83 380.04,-138.23"/>
</g>
<!-- flask_wrappers&#45;&gt;flask -->
<g id="edge35" class="edge">
<title>flask_wrappers&#45;&gt;flask</title><style>.edge>path:hover{stroke-width:8}</style>
<path fill="none" stroke="black" d="M227.53,-270C223.53,-238.99 224.93,-229.75 234.53,-200"/>
<path fill="none" stroke="black" d="M269.21,-324.6C250.32,-312.87 230.54,-295.28 227.53,-272"/>
</g>
<!-- flask_wrappers&#45;&gt;flask_app -->
<g id="edge36" class="edge">
<title>flask_wrappers&#45;&gt;flask_app</title><style>.edge>path:hover{stroke-width:8}</style>
<path fill="none" stroke="black" d="M305.53,-416C295.84,-468.51 347.52,-516.11 380.56,-540.61"/>
</g>
<!-- flask_wrappers&#45;&gt;flask_blueprints -->
<g id="edge37" class="edge">
<title>flask_wrappers&#45;&gt;flask_blueprints</title><style>.edge>path:hover{stroke-width:8}</style>
<path fill="none" stroke="black" d="M227.53,-270C224.14,-243.74 249.3,-225.41 273.11,-214.11"/>
<polygon fill="blue" stroke="black" points="274.36,-217.38 282.11,-210.16 271.54,-210.97 274.36,-217.38"/>
</g>
<!-- flask_wrappers&#45;&gt;flask_ctx -->
<g id="edge38" class="edge">
<title>flask_wrappers&#45;&gt;flask_ctx</title><style>.edge>path:hover{stroke-width:8}</style>
<path fill="none" stroke="black" d="M305.53,-416C301.63,-437.13 285.75,-455.95 272.05,-468.74"/>
<path fill="none" stroke="black" d="M307.27,-361.42C308.08,-372.78 308.57,-388.19 307.08,-402.94"/>
<polygon fill="blue" stroke="black" points="303.66,-402.11 305.74,-412.5 310.59,-403.08 303.66,-402.11"/>
</g>
<!-- flask_wrappers&#45;&gt;flask_helpers -->
<g id="edge40" class="edge">
<title>flask_wrappers&#45;&gt;flask_helpers</title><style>.edge>path:hover{stroke-width:8}</style>
<path fill="none" stroke="black" d="M339.56,-318.18C349.93,-310.92 361.34,-302.93 371.71,-295.68"/>
<polygon fill="blue" stroke="black" points="337.93,-315.05 331.75,-323.65 341.95,-320.78 337.93,-315.05"/>
<polygon fill="blue" stroke="black" points="373.45,-298.73 379.63,-290.13 369.43,-293 373.45,-298.73"/>
</g>
<!-- flask_wrappers&#45;&gt;flask_json -->
<g id="edge41" class="edge">
<title>flask_wrappers&#45;&gt;flask_json</title><style>.edge>path:hover{stroke-width:8}</style>
<path fill="none" stroke="black" d="M297.07,-313.81C295.7,-309.24 294.28,-304.5 292.91,-299.93"/>
<polygon fill="blue" stroke="black" points="293.68,-314.67 299.91,-323.25 300.38,-312.66 293.68,-314.67"/>
<polygon fill="blue" stroke="black" points="296.32,-299.13 290.1,-290.55 289.62,-301.14 296.32,-299.13"/>
</g>
<!-- psycopg -->
<g id="node14" class="node">
<title>psycopg</title><style>.edge>path:hover{stroke-width:8}</style>
<ellipse fill="#3370cc" stroke="black" cx="130.53" cy="-271" rx="31.21" ry="18"/>
<text xml:space="preserve" text-anchor="middle" x="130.53" y="-267.12" font-family="Helvetica,sans-Serif" font-size="10.00" fill="#ffffff">psycopg</text>
</g>
<!-- psycopg&#45;&gt;db -->
<g id="edge42" class="edge">
<title>psycopg&#45;&gt;db</title><style>.edge>path:hover{stroke-width:8}</style>
<path fill="none" stroke="black" d="M141.9,-253.76C147.86,-245.25 155.29,-234.64 161.97,-225.09"/>
<polygon fill="#3370cc" stroke="black" points="164.83,-227.11 167.7,-216.91 159.1,-223.09 164.83,-227.11"/>
</g>
<!-- psycopg&#45;&gt;query_data -->
<g id="edge43" class="edge">
<title>psycopg&#45;&gt;query_data</title><style>.edge>path:hover{stroke-width:8}</style>
<path fill="none" stroke="black" d="M123.57,-253.03C118.57,-237.9 114.33,-215.77 124.53,-200"/>
</g>
<!-- psycopg_sql -->
<g id="node15" class="node">
<title>psycopg_sql</title><style>.edge>path:hover{stroke-width:8}</style>
<ellipse fill="#537bb6" stroke="black" cx="40.53" cy="-271" rx="40.53" ry="18"/>
<text xml:space="preserve" text-anchor="middle" x="40.53" y="-267.12" font-family="Helvetica,sans-Serif" font-size="10.00" fill="#ffffff">psycopg.sql</text>
</g>
<!-- psycopg_sql&#45;&gt;query_data -->
<g id="edge44" class="edge">
<title>psycopg_sql&#45;&gt;query_data</title><style>.edge>path:hover{stroke-width:8}</style>
<path fill="none" stroke="black" d="M124.53,-198C134.67,-182.34 147.47,-165.88 158.18,-152.87"/>
<polygon fill="#537bb6" stroke="black" points="160.84,-155.14 164.56,-145.22 155.46,-150.65 160.84,-155.14"/>
<path fill="none" stroke="black" d="M64.23,-255.98C83.23,-243.56 109.16,-223.75 124.53,-200"/>
</g>
<!-- query_data&#45;&gt;app_py -->
<g id="edge45" class="edge">
<title>query_data&#45;&gt;app_py</title><style>.edge>path:hover{stroke-width:8}</style>
<path fill="none" stroke="black" d="M282.53,-72C283.59,-64.13 283.94,-55.54 283.93,-47.61"/>
<polygon fill="#9246a4" stroke="black" points="287.44,-47.7 283.73,-37.78 280.44,-47.85 287.44,-47.7"/>
<path fill="none" stroke="black" d="M216.09,-121.58C244.06,-115.86 278.51,-102.79 282.53,-73"/>
</g>
</g>
</svg>
